<svg id="Layer_1" data-name="Layer 1" xmlns="http://www.w3.org/2000/svg" viewBox="0 0 133.78 141.96"><defs><style>.cls-1{fill:#7159c1;fill-rule:evenodd;}</style></defs><path d="M79.68,139.06a2.91,2.91,0,0,1-.28,1.16,2.86,2.86,0,0,1-.72,1,3.51,3.51,0,0,1-2.37.78,3.15,3.15,0,0,1-2.53-1.08,4.5,4.5,0,0,1-.92-3v-.51a5,5,0,0,1,.43-2.13,3.19,3.19,0,0,1,1.21-1.41,3.5,3.5,0,0,1,1.84-.49,3.4,3.4,0,0,1,2.33.78,3.16,3.16,0,0,1,1,2.17H78a1.75,1.75,0,0,0-.45-1.17,1.69,1.69,0,0,0-1.18-.37,1.54,1.54,0,0,0-.73.14,1.44,1.44,0,0,0-.56.48,3.47,3.47,0,0,0-.44,1.92v.63a3.69,3.69,0,0,0,.41,2,1.42,1.42,0,0,0,1.3.63,1.71,1.71,0,0,0,1.19-.37,1.63,1.63,0,0,0,.45-1.13Zm25.8-5.58V139a3,3,0,0,1-.19,1.18,2.89,2.89,0,0,1-.67,1,3.85,3.85,0,0,1-4.67,0,2.73,2.73,0,0,1-.67-1,2.55,2.55,0,0,1-.21-1.16v-5.57h1.72V139a1.57,1.57,0,0,0,.08.64,1.37,1.37,0,0,0,.32.56,1.5,1.5,0,0,0,1.09.37c1,0,1.46-.5,1.47-1.52v-5.57Zm9.85,5.3H114v3.06h-1.72v-8.36h3.11a3.51,3.51,0,0,1,2.28.66,2.28,2.28,0,0,1,.8,1.87,2.54,2.54,0,0,1-.37,1.42,2.43,2.43,0,0,1-1.12.91l1.81,3.42v.08H116.9Zm-1.37-1.4h1.39a1.46,1.46,0,0,0,1-.33,1.18,1.18,0,0,0,.36-.91,1.22,1.22,0,0,0-.08-.5,1.06,1.06,0,0,0-.26-.43,1.33,1.33,0,0,0-1-.34H114Zm15.46,2.26a.88.88,0,0,0-.08-.42.86.86,0,0,0-.27-.33,4.6,4.6,0,0,0-1.24-.55,9.57,9.57,0,0,1-1.42-.57,2.27,2.27,0,0,1-1-.83,2.35,2.35,0,0,1-.41-1.24,2.09,2.09,0,0,1,.38-1.21,2.64,2.64,0,0,1,1.1-.83,4.22,4.22,0,0,1,1.61-.3,3.67,3.67,0,0,1,1.6.33,2.54,2.54,0,0,1,1.09.91,2.47,2.47,0,0,1,.39,1.35h-1.73a1,1,0,0,0-.08-.49,1.25,1.25,0,0,0-.28-.41,1.49,1.49,0,0,0-1-.31,1.56,1.56,0,0,0-1,.26.86.86,0,0,0-.26.31.89.89,0,0,0-.09.39.93.93,0,0,0,.12.4.81.81,0,0,0,.29.29,4.58,4.58,0,0,0,1.21.51,5.31,5.31,0,0,1,2.15,1.1,2.1,2.1,0,0,1,.5.75,2.08,2.08,0,0,1,.17.89,2.11,2.11,0,0,1-.2,1,2.13,2.13,0,0,1-.62.75,3.63,3.63,0,0,1-2.22.61,4.29,4.29,0,0,1-1.76-.35,2.84,2.84,0,0,1-1.21-1,2.5,2.5,0,0,1-.42-1.43h1.73c0,.92.55,1.39,1.66,1.39a1.63,1.63,0,0,0,1-.25.86.86,0,0,0,.26-.31.76.76,0,0,0,.08-.39Zm-36.89-1.8a5.05,5.05,0,0,1-.44,2.17,3.24,3.24,0,0,1-1.25,1.44,3.68,3.68,0,0,1-3.72,0A3.3,3.3,0,0,1,85.86,140a4.91,4.91,0,0,1-.45-2.13v-.42a4.94,4.94,0,0,1,.44-2.17,3.38,3.38,0,0,1,1.26-1.44,3.71,3.71,0,0,1,3.72,0,3.36,3.36,0,0,1,1.25,1.44,5.06,5.06,0,0,1,.45,2.17Zm-1.75-.38a3.59,3.59,0,0,0-.47-2,1.53,1.53,0,0,0-.59-.51,1.51,1.51,0,0,0-.76-.16,1.49,1.49,0,0,0-.75.16,1.53,1.53,0,0,0-.59.51,3.52,3.52,0,0,0-.47,2v.41a3.58,3.58,0,0,0,.47,2,1.48,1.48,0,0,0,.58.53,1.86,1.86,0,0,0,1.53,0,1.61,1.61,0,0,0,.58-.52,3.61,3.61,0,0,0,.47-2Zm64.39,2.19a.89.89,0,0,0-.34-.75,4.49,4.49,0,0,0-1.25-.55,9.09,9.09,0,0,1-1.41-.58,2.31,2.31,0,0,1-1.43-2.07,2,2,0,0,1,.38-1.21,2.52,2.52,0,0,1,1.1-.83,4.17,4.17,0,0,1,1.6-.3,3.65,3.65,0,0,1,1.6.33,2.48,2.48,0,0,1,1.09.91,2.39,2.39,0,0,1,.39,1.35h-1.73a1.14,1.14,0,0,0-.36-.9,1.55,1.55,0,0,0-1-.32,1.62,1.62,0,0,0-1,.27.86.86,0,0,0-.26.31.89.89,0,0,0-.09.39.8.8,0,0,0,.11.4.92.92,0,0,0,.3.29,4.78,4.78,0,0,0,1.21.51,5.27,5.27,0,0,1,2.14,1.1,2.27,2.27,0,0,1,.51.75,2.05,2.05,0,0,1,.16.88,1.89,1.89,0,0,1-.2,1,1.93,1.93,0,0,1-.62.74,3.54,3.54,0,0,1-2.21.62,4.29,4.29,0,0,1-1.76-.35,2.86,2.86,0,0,1-1.21-1,2.46,2.46,0,0,1-.41-1.42h1.73c0,.92.55,1.39,1.65,1.39a1.63,1.63,0,0,0,1-.25.86.86,0,0,0,.26-.31A.68.68,0,0,0,155.17,139.65ZM139.42,142h-1.77v-8.6h6.69v1.42h-4.92Zm0-4v2.58h4.92V142h-6.69v-4m0-1h6.69v1.42h-6.69" transform="translate(-47.99)"/><path d="M65.33,110.51A3.17,3.17,0,0,0,65,109a3.25,3.25,0,0,0-1-1.23,16.64,16.64,0,0,0-4.58-2,33.13,33.13,0,0,1-5.25-2.12Q49,100.74,49,95.93a7.38,7.38,0,0,1,1.41-4.47,9.11,9.11,0,0,1,4.05-3.07,15.13,15.13,0,0,1,5.94-1.1,13.8,13.8,0,0,1,5.9,1.2,9.38,9.38,0,0,1,4,3.38,8.87,8.87,0,0,1,1.44,5H65.35A4.17,4.17,0,0,0,64,93.54a5.53,5.53,0,0,0-3.76-1.18,5.86,5.86,0,0,0-3.63,1,3,3,0,0,0-1,1.14A3.07,3.07,0,0,0,55.32,96a3,3,0,0,0,1.52,2.52,17.2,17.2,0,0,0,4.47,1.92c3.62,1.08,6.26,2.44,7.92,4a8.22,8.22,0,0,1,1.88,2.75,8,8,0,0,1,.6,3.28,7.44,7.44,0,0,1-3,6.3,13.31,13.31,0,0,1-8.18,2.29,16,16,0,0,1-6.5-1.31,10.32,10.32,0,0,1-4.47-3.58A9.13,9.13,0,0,1,48,108.9h6.39c0,3.42,2,5.12,6.12,5.12a5.94,5.94,0,0,0,3.55-.92A3.12,3.12,0,0,0,65,112,3,3,0,0,0,65.33,110.51ZM83,90v5.65H86.9v4.5H83v11.47a2.79,2.79,0,0,0,.49,1.82,2.4,2.4,0,0,0,1.87.56,11,11,0,0,0,1.81-.15v4.65a12.7,12.7,0,0,1-3.72.55q-6.45,0-6.58-6.52V100.15H73.48v-4.5h3.36V90Zm20.67,28.63a7.11,7.11,0,0,1-.62-2.06,7.46,7.46,0,0,1-2.62,1.89,7.38,7.38,0,0,1-3.18.59,8.15,8.15,0,0,1-5.6-2A6.32,6.32,0,0,1,90,114.89a6.23,6.23,0,0,1-.56-2.72A6.58,6.58,0,0,1,90,109a6.46,6.46,0,0,1,2.07-2.45q2.72-2,7.83-2h2.82v-1.32a3.76,3.76,0,0,0-.82-2.55,3.25,3.25,0,0,0-2.58-1,3.67,3.67,0,0,0-2.43.74,2.69,2.69,0,0,0-.68.92,2.53,2.53,0,0,0-.2,1.12H89.91a6.14,6.14,0,0,1,1.24-3.69,8.11,8.11,0,0,1,3.48-2.67,12.88,12.88,0,0,1,5.06-1,10,10,0,0,1,6.74,2.14,7.51,7.51,0,0,1,2.5,6v10a10.94,10.94,0,0,0,.91,5v.36Zm-5.08-4.27a5.2,5.2,0,0,0,2.51-.61,3.91,3.91,0,0,0,1.7-1.62v-3.95h-2.3q-4.6,0-4.9,3.18l0,.36a2.63,2.63,0,0,0,.19,1,2.46,2.46,0,0,0,.61.85A3.15,3.15,0,0,0,98.56,114.36Zm28-13a18.09,18.09,0,0,0-2.2-.16c-2.32,0-3.85.79-4.57,2.36v15h-6.14v-23h5.8l.17,2.74a5.69,5.69,0,0,1,5.12-3.17,6.49,6.49,0,0,1,1.91.28ZM137.91,90v5.65h3.93v4.5h-3.93v11.47a2.68,2.68,0,0,0,.49,1.82,2.4,2.4,0,0,0,.87.48,2.6,2.6,0,0,0,1,.08,10.84,10.84,0,0,0,1.8-.15v4.65a12.63,12.63,0,0,1-3.71.55q-6.47,0-6.59-6.52V100.15h-3.35v-4.5h3.35V90Zm17.92,29.06a11.33,11.33,0,0,1-8.23-3.1,11.18,11.18,0,0,1-2.45-3.8,11,11,0,0,1-.72-4.47v-.59a13.79,13.79,0,0,1,1.34-6.19,9.8,9.8,0,0,1,3.79-4.2,10.68,10.68,0,0,1,5.6-1.48,9.61,9.61,0,0,1,7.42,3c1.8,2,2.71,4.79,2.71,8.43v2.5H150.65a5.72,5.72,0,0,0,1.8,3.61,5.43,5.43,0,0,0,3.79,1.36,6.54,6.54,0,0,0,3.08-.61,6.63,6.63,0,0,0,2.46-2l3,3.38a9.1,9.1,0,0,1-3.74,3,12.05,12.05,0,0,1-5.22,1.09Zm-.7-18.86a3.87,3.87,0,0,0-1.61.29,3.74,3.74,0,0,0-1.35.94,6.46,6.46,0,0,0-1.46,3.53h8.54v-.49a4.55,4.55,0,0,0-1.1-3.16,4,4,0,0,0-3-1.12Zm26.55,1.21a16.32,16.32,0,0,0-2.21-.17c-2.32,0-3.85.78-4.57,2.36v15h-6.13v-23h5.8l.17,2.74a5.69,5.69,0,0,1,2.11-2.32,5.77,5.77,0,0,1,3-.85,6.54,6.54,0,0,1,1.91.28Z" transform="translate(-47.99)"/><path class="cls-1" d="M92.66,61.2h45.2a8,8,0,0,0,8-8V8a8,8,0,0,0-8-8H92.66a8,8,0,0,0-8,8V53.2a8,8,0,0,0,8,8ZM125.76,11l5.24.78a.51.51,0,0,1,.28.84l-2.51,3.15a.45.45,0,0,0,.25.75l1.61.37a.76.76,0,0,1,.43,1.22l-7.28,9.39-1,1.25a.72.72,0,0,1-.9.21l-2.08-1a.69.69,0,0,0-.8.12l-1.4,1.31a.7.7,0,0,1-.83.13l-.84-.44a.71.71,0,0,0-.81.09l-2.75,2.44a1.27,1.27,0,0,1-1.46.12l-1.64-1-3.38-2.09L104.87,28a1.21,1.21,0,0,1-.55-1.34l.49-2.22a.78.78,0,0,1,1.09-.5l.68.35a.76.76,0,0,0,.77-.07l1.4-1a.71.71,0,0,1,.74-.07l2.76,1.25a.48.48,0,0,0,.59-.15l7.25-9.36a.77.77,0,0,1,.78-.28l1.82.4a.3.3,0,0,0,.35-.37.69.69,0,0,1,.12-.66l2.23-2.93A.46.46,0,0,1,125.76,11ZM107,30.69a.17.17,0,0,0-.25.22l.78,2.06a.81.81,0,0,1,0,.46l-.68,2.69a.49.49,0,0,0,.15.46l2,1.53a.44.44,0,0,0,.58,0l2-1.81a1.45,1.45,0,0,1,.4-.19l2.33-.24a.19.19,0,0,0,.06-.35Zm-1.14,6.86a.5.5,0,0,1,.46.06l2.11,1.62a.55.55,0,0,1,.15.38L108.38,42a.62.62,0,0,1-.16.31l-9.08,9.17a.08.08,0,1,1-.12-.09l2.51-4.15s0-.09,0-.13h-.1l-.8.32a.16.16,0,0,1-.13-.07v-.06l3.51-8.7c.06-.09.12-.19.21-.22Z" transform="translate(-47.99)"/><text x="-47.99"/></svg>