<svg xmlns="http://www.w3.org/2000/svg" viewBox="0 0 720 720"><defs><style>.cls-1{fill:#121214;}.cls-2{fill:#8156e3;}.cls-3{fill:#8056e2;}</style></defs><g id="Layer_2" data-name="Layer 2"><g id="Layer_2-2" data-name="Layer 2"><path class="cls-1" d="M720,720H0V0H720ZM430,205c-7.37-1.51-13.06-2.32-18.53-3.88-5.82-1.67-9.6,0-13.26,4.76-22.28,29.1-44.87,58-67.2,87-2.94,3.83-5.69,5-10.13,2.65-5-2.64-10.24-4.83-15.43-7.1-14.8-6.48-11.37-7.37-24.37,2.29-6.38,4.74-11.8,6.21-18.93,1.66-5.55-3.53-10.5-.89-12,5.53s-2.89,12.66-4.22,19c-1.58,7.61,0,11.33,6.71,15.49q28.2,17.58,56.44,35.09c6.63,4.12,11.32,3.76,17.25-1.39,6.41-5.56,12.72-11.26,19.13-16.84,10-8.7,9-10.25,21.81-3,3.77,2.14,6.93,1.45,9.93-1.48,3.58-3.49,7.45-6.69,10.87-10.33,3.8-4.06,7.7-4.44,12.52-1.92,5.45,2.86,11.2,5.15,16.7,7.91,4.32,2.16,7.7,1.24,10.54-2.43,3.26-4.21,6.49-8.46,9.76-12.67Q472.3,280.58,507,235.75c5-6.41,3-11.78-4.86-13.68-3.88-.94-7.79-1.77-11.68-2.68-6.76-1.57-7.76-4.3-3.53-9.61,7.16-9,14.35-18,21.49-27,5.06-6.39,3.71-9.85-4.16-11s-15.8-2.44-23.71-3.59c-9-1.31-18.07-2.53-27.21-3.81-6.17,8.07-12.07,15.7-17.86,23.41C432.09,192.38,427.3,196.41,430,205ZM217.46,518.8l.81,1.09q-12.45,20.65-24.91,41.32l1.08.74c.45-.42.91-.82,1.35-1.26q43.43-43.82,86.83-87.67c1.12-1.13,2.41-2.66,2.56-4.11.92-8.57,1.52-17.17,2.22-25.77-4-3.12-7.45-6-11.06-8.61-17-12.45-9.58-12.18-29.2-2.61-2.19,1.06-4.59,3.06-5.48,5.21-11.12,27.09-22,54.29-32.9,81.47a21.24,21.24,0,0,0-.66,3.59Zm76.45-85.95c5.58-4.84,10.64-8.64,15-13.13,6.35-6.56,13.51-10.33,22.87-10.12,4.46.09,8.95-1.1,13.43-1.71l.57-2-75.21-48.77-1.4,1.31c.4,1.5.7,3.05,1.23,4.51,1.83,5,4.07,9.87,5.5,15a21.59,21.59,0,0,1,.47,9.62c-1.43,7.33-3.65,14.51-5.28,21.81-.4,1.79-.52,4.67.51,5.56C278.6,420.9,286,426.53,293.91,432.85Z"/><path class="cls-2" d="M430,205c-2.71-8.58,2.08-12.61,5.51-17.18,5.79-7.71,11.69-15.34,17.86-23.41,9.14,1.28,18.18,2.5,27.21,3.81,7.91,1.15,15.8,2.43,23.71,3.59s9.22,4.62,4.16,11c-7.14,9-14.33,18-21.49,27-4.23,5.31-3.23,8,3.53,9.61,3.89.91,7.8,1.74,11.68,2.68C510,224,512,229.34,507,235.75q-34.69,44.88-69.48,89.67c-3.27,4.21-6.5,8.46-9.76,12.67-2.84,3.67-6.22,4.59-10.54,2.43-5.5-2.76-11.25-5-16.7-7.91-4.82-2.52-8.72-2.14-12.52,1.92-3.42,3.64-7.29,6.84-10.87,10.33-3,2.93-6.16,3.62-9.93,1.48-12.83-7.3-11.82-5.75-21.81,3-6.41,5.58-12.72,11.28-19.13,16.84-5.93,5.15-10.62,5.51-17.25,1.39Q280.81,350,252.61,332.43c-6.68-4.16-8.29-7.88-6.71-15.49,1.33-6.36,2.7-12.71,4.22-19s6.49-9.06,12-5.53c7.13,4.55,12.55,3.08,18.93-1.66,13-9.66,9.57-8.77,24.37-2.29,5.19,2.27,10.43,4.46,15.43,7.1,4.44,2.34,7.19,1.18,10.13-2.65,22.33-29.06,44.92-57.92,67.2-87,3.66-4.79,7.44-6.43,13.26-4.76C417,202.67,422.64,203.48,430,205Z"/><path class="cls-2" d="M217.46,518.8l-9.36,3.39a21.24,21.24,0,0,1,.66-3.59c10.91-27.18,21.78-54.38,32.9-81.47.89-2.15,3.29-4.15,5.48-5.21,19.62-9.57,12.22-9.84,29.2,2.61,3.61,2.64,7.07,5.49,11.06,8.61-.7,8.6-1.3,17.2-2.22,25.77-.15,1.45-1.44,3-2.56,4.11q-43.38,43.88-86.83,87.67c-.44.44-.9.84-1.35,1.26l-1.08-.74q12.45-20.67,24.91-41.32Z"/><path class="cls-3" d="M293.91,432.85c-8-6.32-15.31-12-22.33-18-1-.89-.91-3.77-.51-5.56,1.63-7.3,3.85-14.48,5.28-21.81a21.59,21.59,0,0,0-.47-9.62c-1.43-5.1-3.67-10-5.5-15-.53-1.46-.83-3-1.23-4.51l1.4-1.31,75.21,48.77-.57,2c-4.48.61-9,1.8-13.43,1.71-9.36-.21-16.52,3.56-22.87,10.12C304.55,424.21,299.49,428,293.91,432.85Z"/></g></g></svg>